<svg id="Layer_1" data-name="Layer 1" xmlns="http://www.w3.org/2000/svg" xmlns:xlink="http://www.w3.org/1999/xlink" viewBox="0 0 1920 1080"><defs><style>.cls-1{opacity:0.32;fill:url(#linear-gradient);}.cls-2,.cls-3{opacity:0.5;}.cls-2{fill:url(#linear-gradient-2);}.cls-3{fill:url(#linear-gradient-3);}</style><linearGradient id="linear-gradient" x1="4.09" y1="820.26" x2="-820.36" y2="820.26" gradientUnits="userSpaceOnUse"><stop offset="0.04" stop-color="#bbc3f4"/><stop offset="0.21" stop-color="#a6f1f7"/><stop offset="0.65" stop-color="#fcd4ef"/><stop offset="0.91" stop-color="#ee94df"/></linearGradient><linearGradient id="linear-gradient-2" x1="1918.07" y1="534.33" x2="-1.73" y2="534.33" xlink:href="#linear-gradient"/><linearGradient id="linear-gradient-3" x1="1920.14" y1="541.13" x2="0.33" y2="541.13" xlink:href="#linear-gradient"/></defs><path class="cls-1" d="M-50.23,735.57S-29.1,567.91-159.67,548c0,0,4.66-112.75-98.29-124.84a2.25,2.25,0,0,0,0-.25c-1.51.11-3,.24-4.53.4-2.33.24-4.06-1.79-4.82-3.67-2.41-5.89-4.66-12.32-7.39-18.51-2.94-4.22-6-8.37-9.27-12.32a116.16,116.16,0,0,0-25.19-22.25,213.27,213.27,0,0,0-24.14-14.09,108.65,108.65,0,0,0-21.21-5,221.2,221.2,0,0,0-47.08-.68,238.11,238.11,0,0,0-24.93,3.53c-5.21,1-10.14,2.45-15.24,2.91A133.66,133.66,0,0,0-475.34,374a142.85,142.85,0,0,0-19,19.4c-5.57,7-11.19,15.56-11.73,24.77a4.85,4.85,0,0,1-3,4.35,1.32,1.32,0,0,0,.49.66c5.64,3.2-94.29-8.92-111.24,98.21,0,0-88.08,2.42-64.14,98,0,0-113.28,26.76-71.69,134.43,0,0-96.45,73.25-36.28,185.33,0,0-85,121,39,194.1,0,0-9.34,143.63,165.34,110.38,0,0,58.67,70.48,197.34,31.92,0,0,118.67,59.84,180-31.92,0,0,193.34,8,129.34-133,0,0,126.67-57.19,57.33-180.86C-23.56,929.73,53.78,811.37-50.23,735.57Z"/><rect class="cls-2" x="-1.73" y="-2.83" width="1919.81" height="1074.32"/><rect class="cls-3" x="0.33" y="3.97" width="1919.81" height="1074.32"/></svg>