<svg id="Layer_1" data-name="Layer 1" xmlns="http://www.w3.org/2000/svg" xmlns:xlink="http://www.w3.org/1999/xlink" viewBox="0 0 1920 1080"><defs><style>.cls-1,.cls-11{fill:#fff;}.cls-1{opacity:0.9;}.cls-10,.cls-2,.cls-3,.cls-4,.cls-5,.cls-6,.cls-7{opacity:0.4;}.cls-2{fill:url(#linear-gradient);}.cls-3{fill:url(#linear-gradient-2);}.cls-4{fill:url(#linear-gradient-3);}.cls-5{fill:url(#linear-gradient-4);}.cls-6{fill:url(#linear-gradient-5);}.cls-7{fill:url(#linear-gradient-6);}.cls-8{fill:url(#linear-gradient-7);}.cls-9{opacity:0.45;fill:url(#linear-gradient-8);}.cls-10{fill:url(#linear-gradient-9);}.cls-11{opacity:0.85;}.cls-12{fill:none;stroke-miterlimit:10;stroke-width:20px;stroke:url(#linear-gradient-10);}.cls-13{fill:#ba9bc9;}.cls-13,.cls-14{opacity:0.75;}.cls-15{fill:#ac71bf;}.cls-16{fill:#601d7c;}</style><linearGradient id="linear-gradient" x1="17.27" y1="198.33" x2="17.27" y2="-371.15" gradientTransform="translate(1.77 290.54) rotate(4.77)" gradientUnits="userSpaceOnUse"><stop offset="0.04" stop-color="#384b97"/><stop offset="0.06" stop-color="#3c47a9"/><stop offset="0.08" stop-color="#4142bc"/><stop offset="0.1" stop-color="#443fca"/><stop offset="0.13" stop-color="#453ed2"/><stop offset="0.18" stop-color="#463dd4"/><stop offset="0.33" stop-color="#553791"/><stop offset="0.52" stop-color="#8227ab"/><stop offset="0.66" stop-color="#b564c2"/><stop offset="0.78" stop-color="#cc66d4"/><stop offset="0.93" stop-color="#9f4278"/><stop offset="1" stop-color="#9f4278"/></linearGradient><linearGradient id="linear-gradient-2" x1="796.23" y1="-171.75" x2="181.76" y2="442.72" gradientTransform="matrix(1, 0, 0, 1, 0, 0)" xlink:href="#linear-gradient"/><linearGradient id="linear-gradient-3" x1="1897.17" y1="631.62" x2="1502.62" y2="237.06" gradientTransform="matrix(1, 0, 0, 1, 0, 0)" xlink:href="#linear-gradient"/><linearGradient id="linear-gradient-4" x1="547.13" y1="397.42" x2="207.25" y2="593.64" gradientTransform="matrix(1, 0, 0, 1, 0, 0)" xlink:href="#linear-gradient"/><linearGradient id="linear-gradient-5" x1="1535.93" y1="308.07" x2="1057.08" y2="-170.78" gradientTransform="matrix(1, 0, 0, 1, 0, 0)" xlink:href="#linear-gradient"/><linearGradient id="linear-gradient-6" x1="-5201.51" y1="607.94" x2="-5953.11" y2="-143.66" gradientTransform="matrix(-1, 0, 0, 1, -3742.13, 0)" xlink:href="#linear-gradient"/><linearGradient id="linear-gradient-7" x1="976.96" y1="462.16" x2="976.96" y2="44.5" gradientTransform="matrix(1, 0, 0, 1, 0, 0)" xlink:href="#linear-gradient"/><linearGradient id="linear-gradient-8" x1="1151.87" y1="138.01" x2="781.72" y2="508.16" gradientTransform="matrix(1, 0, 0, 1, 0, 0)" xlink:href="#linear-gradient"/><linearGradient id="linear-gradient-9" x1="1162.2" y1="518.49" x2="771.39" y2="127.68" gradientTransform="matrix(1, 0, 0, 1, 0, 0)" xlink:href="#linear-gradient"/><linearGradient id="linear-gradient-10" x1="1167.68" y1="527.99" x2="762.73" y2="123.04" gradientUnits="userSpaceOnUse"><stop offset="0.04" stop-color="#51274e"/><stop offset="0.08" stop-color="#bc94bb"/><stop offset="0.16" stop-color="#772575"/><stop offset="0.29" stop-color="#bc94bb"/><stop offset="0.41" stop-color="#772575"/><stop offset="0.56" stop-color="#b38bb2"/><stop offset="0.6" stop-color="#e7d8e6"/><stop offset="0.72" stop-color="#51274e"/><stop offset="0.91" stop-color="#bc94bb"/><stop offset="0.97" stop-color="#772575"/></linearGradient></defs><rect x="-1.29" y="-2.72" width="1920" height="1080"/><polygon class="cls-1" points="370.42 405.77 357.09 415.35 357.43 431.76 344.2 422.05 328.7 427.45 333.84 411.86 323.92 398.79 340.33 398.87 349.7 385.39 354.7 401.02 370.42 405.77"/><polygon class="cls-1" points="198.85 238.05 195.28 235.62 191.25 237.18 192.46 233.03 189.73 229.67 194.05 229.54 196.4 225.91 197.86 229.98 202.04 231.09 198.62 233.73 198.85 238.05"/><polygon class="cls-1" points="138.41 135.57 108.84 136.53 92.87 161.43 82.83 133.61 54.21 126.12 77.56 107.96 75.85 78.43 100.33 95.03 127.89 84.28 119.66 112.69 138.41 135.57"/><polygon class="cls-1" points="547.6 104.97 518.03 105.93 502.06 130.83 492.01 103.01 463.4 95.52 486.75 77.36 485.04 47.83 509.52 64.43 537.08 53.67 528.85 82.09 547.6 104.97"/><polygon class="cls-1" points="265.47 68.12 262.92 66.38 260.04 67.5 260.9 64.53 258.95 62.13 262.04 62.04 263.71 59.45 264.76 62.35 267.74 63.15 265.3 65.04 265.47 68.12"/><polygon class="cls-1" points="421.23 223.34 418.68 221.59 415.8 222.71 416.66 219.74 414.71 217.35 417.8 217.26 419.48 214.66 420.52 217.57 423.51 218.36 421.06 220.25 421.23 223.34"/><polygon class="cls-1" points="191.84 369.62 189.28 367.88 186.4 368.99 187.27 366.02 185.31 363.63 188.4 363.54 190.08 360.94 191.12 363.85 194.11 364.64 191.66 366.53 191.84 369.62"/><polygon class="cls-1" points="419.33 537.86 416.78 536.12 413.9 537.24 414.76 534.27 412.81 531.87 415.9 531.78 417.57 529.18 418.62 532.09 421.61 532.88 419.16 534.77 419.33 537.86"/><polygon class="cls-1" points="29.89 205.5 27.34 203.76 24.46 204.87 25.32 201.91 23.37 199.51 26.46 199.42 28.13 196.82 29.18 199.73 32.16 200.52 29.72 202.41 29.89 205.5"/><polygon class="cls-1" points="62.54 330.66 56.77 314.68 40.34 310.38 53.75 299.96 52.77 283 66.83 292.54 82.64 286.36 77.92 302.67 88.68 315.81 71.71 316.36 62.54 330.66"/><polygon class="cls-1" points="322.66 184.5 315.47 180.2 307.85 183.68 309.72 175.52 304.05 169.35 312.39 168.6 316.51 161.31 319.8 169.01 328.01 170.67 321.7 176.18 322.66 184.5"/><polygon class="cls-1" points="622.19 230.54 614.01 232.34 610.85 240.09 606.61 232.87 598.26 232.26 603.82 226 601.82 217.87 609.49 221.22 616.61 216.8 615.78 225.14 622.19 230.54"/><polygon class="cls-1" points="1821.29 149.37 1797.07 132.39 1769.35 142.71 1778.02 114.42 1759.64 91.25 1789.21 90.76 1805.58 66.11 1815.18 94.09 1843.68 102.03 1820.04 119.82 1821.29 149.37"/><polygon class="cls-1" points="1605.47 220.97 1599.7 205 1583.27 200.69 1596.68 190.27 1595.7 173.32 1609.75 182.85 1625.57 176.67 1620.85 192.99 1631.61 206.12 1614.64 206.67 1605.47 220.97"/><polygon class="cls-1" points="1752.14 299.87 1768.82 296.69 1775.67 281.15 1783.84 296.04 1800.74 297.74 1789.11 310.12 1792.7 326.71 1777.34 319.48 1762.67 328.03 1764.81 311.18 1752.14 299.87"/><polygon class="cls-1" points="1198.31 60.3 1214.99 57.13 1221.84 41.58 1230.01 56.47 1246.91 58.17 1235.28 70.55 1238.88 87.14 1223.51 79.91 1208.84 88.46 1210.98 71.61 1198.31 60.3"/><polygon class="cls-1" points="1472.35 85.93 1465.16 81.63 1457.54 85.11 1459.41 76.95 1453.74 70.78 1462.09 70.03 1466.2 62.74 1469.49 70.44 1477.7 72.1 1471.39 77.61 1472.35 85.93"/><polygon class="cls-1" points="1542.71 361.55 1534.53 363.34 1531.36 371.1 1527.13 363.87 1518.78 363.26 1524.34 357 1522.34 348.87 1530.02 352.23 1537.13 347.81 1536.31 356.15 1542.71 361.55"/><polygon class="cls-1" points="1336.64 256.57 1328.46 258.37 1325.3 266.12 1321.07 258.89 1312.71 258.28 1318.28 252.02 1316.28 243.89 1323.95 247.25 1331.07 242.83 1330.24 251.17 1336.64 256.57"/><polygon class="cls-1" points="726.41 75.34 718.23 77.13 715.07 84.89 710.84 77.66 702.49 77.05 708.05 70.79 706.05 62.66 713.72 66.02 720.84 61.6 720.02 69.94 726.41 75.34"/><polygon class="cls-1" points="1811.38 477.94 1812.45 469.63 1806.21 464.04 1814.45 462.49 1817.84 454.83 1821.85 462.18 1830.18 463.04 1824.43 469.13 1826.19 477.32 1818.62 473.74 1811.38 477.94"/><polygon class="cls-1" points="66.56 453.31 59.37 449.01 51.75 452.49 53.62 444.33 47.95 438.16 56.3 437.42 60.41 430.12 63.7 437.82 71.91 439.48 65.6 444.99 66.56 453.31"/><polygon class="cls-1" points="468 359.24 460.81 354.94 453.19 358.43 455.06 350.26 449.39 344.09 457.73 343.35 461.85 336.05 465.13 343.75 473.35 345.41 467.04 350.92 468 359.24"/><polygon class="cls-1" points="297.91 519.4 292.77 512.79 284.41 513.27 289.11 506.34 286.07 498.54 294.11 500.87 300.59 495.56 300.86 503.93 307.91 508.45 300.03 511.3 297.91 519.4"/><polygon class="cls-1" points="1484.19 208.96 1481.64 207.22 1478.76 208.33 1479.62 205.37 1477.67 202.97 1480.76 202.88 1482.43 200.28 1483.48 203.19 1486.46 203.98 1484.02 205.87 1484.19 208.96"/><polygon class="cls-1" points="1100.75 36.35 1098.2 34.61 1095.31 35.72 1096.18 32.76 1094.23 30.36 1097.32 30.27 1098.99 27.67 1100.04 30.58 1103.02 31.37 1100.58 33.26 1100.75 36.35"/><polygon class="cls-1" points="1662.02 285.17 1659.46 283.43 1656.58 284.55 1657.45 281.58 1655.5 279.19 1658.59 279.1 1660.26 276.5 1661.3 279.41 1664.29 280.2 1661.85 282.09 1662.02 285.17"/><polygon class="cls-1" points="1722 184.98 1719.44 183.24 1716.56 184.35 1717.43 181.39 1715.48 178.99 1718.57 178.9 1720.24 176.3 1721.28 179.21 1724.27 180 1721.83 181.89 1722 184.98"/><polygon class="cls-1" points="1872.48 232.45 1869.93 230.71 1867.05 231.82 1867.91 228.86 1865.96 226.46 1869.05 226.37 1870.73 223.77 1871.77 226.68 1874.76 227.47 1872.31 229.36 1872.48 232.45"/><polygon class="cls-1" points="1670.57 51.29 1668.02 49.55 1665.13 50.67 1666 47.7 1664.05 45.3 1667.14 45.21 1668.81 42.62 1669.86 45.52 1672.84 46.32 1670.4 48.21 1670.57 51.29"/><polygon class="cls-1" points="1662.38 448.18 1659.83 446.43 1656.95 447.55 1657.81 444.58 1655.86 442.19 1658.95 442.1 1660.63 439.5 1661.67 442.41 1664.66 443.2 1662.21 445.09 1662.38 448.18"/><polygon class="cls-1" points="1441.02 465.85 1438.47 464.11 1435.59 465.22 1436.45 462.26 1434.5 459.86 1437.59 459.77 1439.27 457.17 1440.31 460.08 1443.3 460.87 1440.85 462.76 1441.02 465.85"/><path class="cls-2" d="M257.34,121.71S231.13-64.23-62-87.2-390.23,116.71-390.23,116.71-557,79.35-628.86,204.79c0,0-65,201,256.83,196.07,0,0,81.81,81.89,204,26.43,0,0,178.44,130.47,383.27,20.43,0,0,119.86,71.61,236.1,2.16,0,0,184.09,56.55,218.83-80.74,0,0-1.78-116.77-157.66-117.24C512.56,251.9,486.46,92.94,257.34,121.71Z"/><path class="cls-3" d="M694.94-67.6S658.23-251,398.66-249.5,124.8-18.69,124.8-18.69-24.72-42.09-78.69,89.08c0,0-42.46,206,240.36,174.29,0,0,78,74.92,181.48,9.39,0,0,166.57,115.36,338.72-11.5,0,0,110.71,61.48,207.89-17.5,0,0,166.13,41.11,186.62-98.8,0,0-10.14-116.38-147.33-103.87C929.05,41.09,894.42-115.38,694.94-67.6Z"/><path class="cls-4" d="M1829.42,321.58s-23.24-101.79-187.62-101-173.43,128.11-173.43,128.11-94.69-13-128.87,59.82c0,0-26.89,114.37,152.21,96.75,0,0,49.39,41.58,114.93,5.21,0,0,105.48,64,214.5-6.38,0,0,70.12,34.13,131.65-9.72,0,0,105.21,22.83,118.19-54.84,0,0-6.43-64.6-93.3-57.65C1977.68,381.91,1955.75,295.05,1829.42,321.58Z"/><path class="cls-5" d="M463.49,427.83S449.4,352.9,349.78,353.5s-105.1,94.32-105.1,94.32-57.39-9.56-78.1,44c0,0-16.3,84.19,92.25,71.22,0,0,29.93,30.62,69.64,3.84,0,0,63.93,47.14,130-4.7,0,0,42.49,25.13,79.79-7.15,0,0,63.75,16.8,71.62-40.37,0,0-3.89-47.56-56.54-42.45C553.34,472.24,540.05,408.31,463.49,427.83Z"/><path class="cls-6" d="M1451.37-91.39s-27.52-144.53-222.13-143.37S1023.91-52.84,1023.91-52.84,911.81-71.28,871.34,32.1c0,0-31.83,162.39,180.21,137.37,0,0,58.48,59.05,136.07,7.41,0,0,124.88,90.92,254-9.07,0,0,83,48.46,155.87-13.8,0,0,124.55,32.41,139.92-77.86,0,0-7.61-91.73-110.46-81.87C1626.9-5.72,1600.94-129,1451.37-91.39Z"/><path class="cls-7" d="M1586.77,35.49S1631.54-142,1948.15-140.6s334,223.43,334,223.43,182.38-22.65,248.21,104.32c0,0,51.8,199.44-293.18,168.72,0,0-95.12,72.52-221.35,9.1,0,0-203.18,111.67-413.15-11.14,0,0-135,59.52-253.58-16.94,0,0-202.63,39.8-227.62-95.64,0,0,12.36-112.66,179.7-100.55C1301.22,140.7,1343.45-10.76,1586.77,35.49Z"/><path class="cls-8" d="M1092.1,177.72s-21.43-134.3-173-133.22-159.87,169-159.87,169S672,196.4,640.48,292.46c0,0-24.79,150.89,140.31,127.65,0,0,45.53,54.86,105.94,6.88,0,0,97.24,84.48,197.74-8.43,0,0,64.63,45,121.35-12.82,0,0,97,30.11,109-72.35,0,0-5.92-85.23-86-76.07C1228.76,257.32,1208.55,142.73,1092.1,177.72Z"/><path class="cls-9" d="M1092.1,177.72s-21.43-134.3-173-133.22-159.87,169-159.87,169S672,196.4,640.48,292.46c0,0-24.79,150.89,140.31,127.65,0,0,45.53,54.86,105.94,6.88,0,0,97.24,84.48,197.74-8.43,0,0,64.63,45,121.35-12.82,0,0,97,30.11,109-72.35,0,0-5.92-85.23-86-76.07C1228.76,257.32,1208.55,142.73,1092.1,177.72Z"/><path class="cls-10" d="M1092.1,177.72s-21.43-134.3-173-133.22-159.87,169-159.87,169S672,196.4,640.48,292.46c0,0-24.79,150.89,140.31,127.65,0,0,45.53,54.86,105.94,6.88,0,0,97.24,84.48,197.74-8.43,0,0,64.63,45,121.35-12.82,0,0,97,30.11,109-72.35,0,0-5.92-85.23-86-76.07C1228.76,257.32,1208.55,142.73,1092.1,177.72Z"/><polygon class="cls-11" points="711.05 273.9 700.87 274.23 695.37 282.8 691.91 273.22 682.05 270.64 690.1 264.39 689.5 254.22 697.94 259.93 707.43 256.23 704.59 266.01 711.05 273.9"/><polygon class="cls-11" points="1267.75 343.48 1263.72 334.12 1253.73 332.13 1261.39 325.41 1260.19 315.3 1268.95 320.5 1278.2 316.24 1275.96 326.18 1282.87 333.66 1272.73 334.59 1267.75 343.48"/><polygon class="cls-11" points="1205.22 276.82 1202.12 274.7 1198.61 276.06 1199.66 272.45 1197.29 269.53 1201.05 269.42 1203.09 266.26 1204.35 269.8 1207.99 270.76 1205.01 273.06 1205.22 276.82"/><polygon class="cls-11" points="1233.17 374.38 1230.07 372.27 1226.56 373.63 1227.62 370.02 1225.24 367.1 1229 366.99 1231.04 363.83 1232.31 367.37 1235.94 368.33 1232.97 370.63 1233.17 374.38"/><polygon class="cls-11" points="708.46 354.12 705.35 352 701.85 353.36 702.9 349.75 700.53 346.83 704.29 346.72 706.32 343.56 707.59 347.1 711.23 348.06 708.25 350.36 708.46 354.12"/><polygon class="cls-11" points="778.54 273.86 775.43 271.74 771.92 273.1 772.98 269.49 770.6 266.57 774.36 266.46 776.4 263.3 777.67 266.84 781.3 267.8 778.33 270.1 778.54 273.86"/><polygon class="cls-11" points="801.64 144.05 798.54 141.93 795.03 143.29 796.09 139.68 793.71 136.77 797.47 136.66 799.51 133.5 800.77 137.04 804.41 138 801.43 140.3 801.64 144.05"/><polygon class="cls-11" points="1058.43 150.63 1055.32 148.51 1051.82 149.87 1052.87 146.26 1050.5 143.35 1054.26 143.24 1056.29 140.08 1057.56 143.62 1061.19 144.58 1058.22 146.88 1058.43 150.63"/><path class="cls-12" d="M1090.51,180.16s-21.43-134.31-173-133.22S757.68,216,757.68,216s-87.28-17.14-118.79,78.92c0,0-24.79,150.89,140.31,127.65,0,0,45.53,54.86,105.94,6.88,0,0,97.24,84.48,197.74-8.43,0,0,64.63,45,121.35-12.82,0,0,97,30.12,108.94-72.35,0,0-5.92-85.23-86-76.07C1227.17,259.75,1207,145.16,1090.51,180.16Z"/><circle class="cls-13" cx="976.16" cy="862.05" r="10.44"/><g class="cls-14"><path class="cls-15" d="M976.14,872.39c-127.48,56.4-130.35,199.52-130.35,199.52,132.71-74,266,0,266,0C1111.81,918.33,976.14,872.39,976.14,872.39Z"/></g><g class="cls-14"><path class="cls-16" d="M976.11,871.65c-249.54-3.56-414.74,199.66-414.74,199.66,136.9-72.67,283.85,0,283.85,0s2.86-143.11,130.35-199.53l.57.2Z"/></g><g class="cls-14"><path class="cls-16" d="M977.16,871.8l0,.33c9.48,3.42,135.1,51.55,135.1,199.33,135.64-66.35,280.12,0,280.12,0C1240.22,924.29,1098.7,873.52,977.16,871.8Z"/></g></svg>